<svg width="68" height="69" viewBox="0 0 68 69" fill="none" xmlns="http://www.w3.org/2000/svg">
<path d="M34 2.58789V4.48419C34 10.8842 36.2154 17.0471 40.4 22.0249C39.1692 28.1879 35.7231 33.6397 30.3077 37.1953L29.8154 37.4323C26.1231 39.3286 21.9385 40.0397 17.5077 39.5657L14.5538 39.3286C11.1077 38.6175 7.66154 39.5657 5.2 41.936C3.23077 44.0694 2 46.9138 2 49.7583V66.5879" stroke="black" stroke-width="4" stroke-miterlimit="10" stroke-linecap="round" stroke-linejoin="round"/>
<path d="M43.8457 2.58789V3.53604C43.8457 14.4397 48.7688 19.1805 48.7688 19.1805H50.9842C59.3534 19.1805 65.9996 25.5805 65.9996 33.6397C65.9996 38.1434 64.7688 42.6472 62.5534 46.6768C57.138 55.9212 46.3072 61.8471 33.2611 60.4249C27.3534 59.9509 21.6919 57.8175 17.2611 54.262C15.0457 52.3657 11.8457 53.7879 11.8457 56.3953V66.5879" stroke="black" stroke-width="4" stroke-miterlimit="10" stroke-linecap="round" stroke-linejoin="round"/>
</svg>
