<svg width="14" height="14" viewBox="0 0 14 14" fill="none" xmlns="http://www.w3.org/2000/svg">
<g clip-path="url(#clip0_2254_14926)">
<path d="M1.16699 12.8337L9.33366 4.66699" stroke="#555555" stroke-linecap="round" stroke-linejoin="round"/>
<path d="M2.02386 7.30949L2.91636 6.41699L3.80886 7.30949C4.19001 7.69215 4.40402 8.21023 4.40402 8.75033C4.40402 9.29042 4.19001 9.80851 3.80886 10.1912L2.91636 11.0837L2.02386 10.1912C1.64271 9.80851 1.42871 9.29042 1.42871 8.75033C1.42871 8.21023 1.64271 7.69215 2.02386 7.30949Z" stroke="#555555" stroke-linecap="round" stroke-linejoin="round"/>
<path d="M4.35687 4.97551L5.24937 4.08301L6.14187 4.97551C6.52302 5.35816 6.73702 5.87625 6.73702 6.41634C6.73702 6.95643 6.52302 7.47452 6.14187 7.85717L5.24937 8.74967L4.35687 7.85717C3.97572 7.47452 3.76172 6.95643 3.76172 6.41634C3.76172 5.87625 3.97572 5.35816 4.35687 4.97551Z" stroke="#555555" stroke-linecap="round" stroke-linejoin="round"/>
<path d="M6.69086 2.6425L7.58336 1.75L8.47586 2.6425C8.85701 3.02515 9.07101 3.54324 9.07101 4.08333C9.07101 4.62343 8.85701 5.14151 8.47586 5.52417L7.58336 6.41667L6.69086 5.52417C6.30971 5.14151 6.0957 4.62343 6.0957 4.08333C6.0957 3.54324 6.30971 3.02515 6.69086 2.6425Z" stroke="#555555" stroke-linecap="round" stroke-linejoin="round"/>
<path d="M11.6663 1.16699H12.833V2.33366C12.833 2.9525 12.5872 3.54599 12.1496 3.98357C11.712 4.42116 11.1185 4.66699 10.4997 4.66699H9.33301V3.50033C9.33301 2.88149 9.57884 2.28799 10.0164 1.85041C10.454 1.41282 11.0475 1.16699 11.6663 1.16699Z" stroke="#555555" stroke-linecap="round" stroke-linejoin="round"/>
<path d="M6.69116 10.1909L7.58366 11.0834L6.69116 11.9759C6.30851 12.357 5.79042 12.571 5.25033 12.571C4.71023 12.571 4.19215 12.357 3.80949 11.9759L2.91699 11.0834L3.80949 10.1909C4.19215 9.80971 4.71023 9.5957 5.25033 9.5957C5.79042 9.5957 6.30851 9.80971 6.69116 10.1909Z" stroke="#555555" stroke-linecap="round" stroke-linejoin="round"/>
<path d="M9.02417 7.85785L9.91667 8.75035L9.02417 9.64285C8.64151 10.024 8.12343 10.238 7.58333 10.238C7.04324 10.238 6.52515 10.024 6.1425 9.64285L5.25 8.75035L6.1425 7.85785C6.52515 7.4767 7.04324 7.2627 7.58333 7.2627C8.12343 7.2627 8.64151 7.4767 9.02417 7.85785Z" stroke="#555555" stroke-linecap="round" stroke-linejoin="round"/>
<path d="M11.3572 5.52484L12.2497 6.41734L11.3572 7.30984C10.9745 7.69099 10.4564 7.90499 9.91634 7.90499C9.37625 7.90499 8.85816 7.69099 8.47551 7.30984L7.58301 6.41734L8.47551 5.52484C8.85816 5.14369 9.37625 4.92969 9.91634 4.92969C10.4564 4.92969 10.9745 5.14369 11.3572 5.52484Z" stroke="#555555" stroke-linecap="round" stroke-linejoin="round"/>
</g>
<defs>
<clipPath id="clip0_2254_14926">
<rect width="14" height="14" fill="white"/>
</clipPath>
</defs>
</svg>
