<svg width="14" height="15" viewBox="0 0 14 15" fill="none" xmlns="http://www.w3.org/2000/svg">
<path d="M12.9558 7.14539C12.9503 7.02793 12.9448 6.91171 12.9398 6.79705C12.8745 5.29834 12.6134 3.43359 11.1617 2.30682C10.4425 1.74858 9.59741 1.33164 8.78217 1.13283C7.79868 0.892939 6.89426 0.97914 6.16683 1.38202C5.50034 1.75115 5.06376 2.35024 4.67856 2.87883C4.22476 3.50156 3.83284 4.03936 3.15959 4.18571C2.53816 4.32079 1.97278 4.83275 1.56756 5.62727C1.20689 6.33446 1 7.22237 1 8.06331C1 10.003 2.1451 10.4507 3.1554 10.8456C3.48915 10.9761 3.83429 11.111 4.13434 11.2966C4.53216 11.5427 4.80538 11.9172 5.09468 12.3138C5.44875 12.7992 5.81485 13.3011 6.43354 13.6147C6.93765 13.8701 7.54518 14 8.19362 14C8.62432 14 9.07319 13.9427 9.52161 13.8268C10.6538 13.5343 11.6111 12.9103 12.148 12.115C13.1217 10.6727 13.0335 8.79876 12.9558 7.14539ZM11.528 11.6567C11.0949 12.2984 10.2973 12.8083 9.33963 13.0557C8.39922 13.2988 7.43656 13.2405 6.76451 12.8998C6.30857 12.6688 6.01206 12.2623 5.69813 11.8319C5.37743 11.3923 5.04585 10.9377 4.52068 10.6128C4.16283 10.3915 3.78573 10.2441 3.42109 10.1015C2.45621 9.72435 1.75912 9.45183 1.75912 8.06331C1.75912 6.59199 2.4857 5.14343 3.31398 4.96338C4.26465 4.75673 4.78193 4.0469 5.28218 3.36041C5.65278 2.85184 6.00286 2.37149 6.52194 2.08402C6.88902 1.88072 7.30108 1.79218 7.73035 1.79218C8.75237 1.79218 9.87138 2.29423 10.7095 2.94474C11.9044 3.87224 12.1238 5.51002 12.1815 6.83323C12.1865 6.94886 12.1921 7.06601 12.1976 7.18444C12.2693 8.70956 12.3506 10.4382 11.528 11.6567Z" fill="#555555" stroke="#555555" stroke-width="0.4"/>
<path d="M8.22344 5.55176C6.6372 5.55176 5.34668 6.90206 5.34668 8.56181C5.34668 10.2215 6.6372 11.5719 8.22344 11.5719C9.80967 11.5719 11.1002 10.2216 11.1002 8.56181C11.1002 6.90209 9.80969 5.55176 8.22344 5.55176ZM8.22344 10.7776C7.05577 10.7776 6.10577 9.78363 6.10577 8.56183C6.10577 7.34005 7.05577 6.34606 8.22344 6.34606C9.3911 6.34606 10.3411 7.34005 10.3411 8.56183C10.3411 9.78361 9.39113 10.7776 8.22344 10.7776Z" fill="#555555" stroke="#555555" stroke-width="0.4"/>
</svg>
