<svg width="19" height="32" viewBox="0 0 19 32" fill="none" xmlns="http://www.w3.org/2000/svg">
<path d="M12.8689 7.73281C12.0784 7.73281 11.3106 7.93625 10.6064 8.32717C10.6545 7.7898 10.7326 7.24746 10.8447 6.70023C10.9121 6.37103 10.7151 6.04535 10.3923 5.9523L10.1539 5.88354L10.3784 1.75296C10.388 1.57639 10.3245 1.40368 10.203 1.27534C10.0814 1.14693 9.91233 1.07422 9.73559 1.07422H6.44385C6.26453 1.07422 6.09345 1.1489 5.97164 1.28041C5.84974 1.41183 5.7882 1.58823 5.80193 1.76695L6.02503 4.69387L4.90103 4.36999C4.65124 4.29831 4.38281 4.38338 4.22023 4.58605C4.05773 4.7889 4.03318 5.06959 4.15782 5.29759L5.71643 8.1469C6.21543 13.0355 3.91944 16.2609 3.40311 16.9169C1.96133 18.5997 1.13477 20.9905 1.13477 23.4826C1.13477 26.429 1.77291 28.2899 3.19589 29.4596C3.29753 30.3667 4.06906 31.0742 5.00267 31.0742H11.3368C12.2704 31.0742 13.0419 30.3668 13.1436 29.4597C14.5666 28.2895 15.2046 26.4286 15.2046 23.4826C15.2046 22.446 15.0606 21.4277 14.7895 20.4701C15.7518 20.029 16.6065 19.2544 17.2243 18.2505C17.9275 17.1077 18.2992 15.7464 18.2992 14.3139C18.2992 10.6851 15.8632 7.73281 12.8689 7.73281ZM9.05581 2.36183L8.88422 5.51777L7.34544 5.07432L7.13856 2.36183H9.05581ZM9.4742 7.02771C9.11728 9.15991 9.24303 11.0259 9.58271 12.5833H6.75374C7.04654 11.2403 7.18096 9.66732 6.98473 7.89153C6.98447 7.88869 6.97349 7.7462 6.90859 7.6431L6.02889 6.03496L9.4742 7.02771ZM12.1526 28.5993C11.9219 28.7676 11.8163 29.049 11.863 29.3238C11.8296 29.5844 11.6063 29.7866 11.3368 29.7866H5.00267C4.73313 29.7866 4.50986 29.5845 4.47646 29.3238C4.52273 29.0489 4.4168 28.7672 4.18624 28.5987C2.96635 27.7092 2.42238 26.1313 2.42238 23.4826C2.42238 21.3521 3.09958 19.3212 4.28306 17.8747C4.46857 17.6615 5.64107 16.2517 6.40737 13.8709H9.92933C10.6961 16.2506 11.8703 17.6612 12.0567 17.8752C13.2399 19.3218 13.9169 21.3521 13.9169 23.4825C13.9169 26.1315 13.3729 27.7095 12.1526 28.5993ZM13.4831 17.6339C13.3094 17.3798 13.1248 17.1362 12.9278 16.9069C12.6694 16.5793 12.0019 15.6589 11.4436 14.2555C11.1405 13.493 10.9152 12.7117 10.7659 11.9146C11.261 11.2847 11.9305 10.9193 12.6254 10.9193C14.0906 10.9193 15.2828 12.4675 15.2828 14.3705C15.2828 15.8516 14.5283 17.1617 13.4831 17.6339ZM14.361 19.2505C14.2893 19.0813 14.2136 18.9148 14.1334 18.7515C15.5764 18.0379 16.5704 16.3338 16.5704 14.3705C16.5704 11.7575 14.8007 9.63169 12.6254 9.63169C11.8898 9.63169 11.163 10.0576 10.5534 10.503C10.5456 10.3702 10.5591 10.0566 10.5554 9.92312C10.567 9.91445 10.5791 9.9069 10.5904 9.89737C11.2682 9.32361 12.0562 9.02033 12.8689 9.02033C15.1532 9.02033 17.0115 11.3949 17.0115 14.3138C17.0115 16.5058 15.9396 18.4676 14.361 19.2505Z" fill="black" stroke="black" stroke-width="0.64"/>
</svg>
