<svg width="30" height="30" viewBox="0 0 30 30" fill="none" xmlns="http://www.w3.org/2000/svg">
<path d="M23.4885 10.2291L23.6198 10.3603C24.3228 11.0635 24.7177 12.0172 24.7177 13.0116C24.7177 14.0059 24.3228 14.9596 23.6198 15.6628L15.6642 23.6166C15.3159 23.9649 14.9025 24.2413 14.4474 24.4298C13.9923 24.6184 13.5046 24.7154 13.012 24.7154C12.5194 24.7154 12.0316 24.6184 11.5766 24.4298C11.1215 24.2413 10.708 23.9649 10.3598 23.6166L10.2285 23.4853L9.66041 26.6991C9.60101 27.037 9.45004 27.3521 9.22392 27.6102C8.99781 27.8682 8.70523 28.0593 8.37804 28.1625C8.05085 28.2658 7.7016 28.2773 7.36832 28.1958C7.03504 28.1143 6.73052 27.9429 6.48791 27.7003L2.29916 23.5116C2.05656 23.2689 1.88517 22.9644 1.80367 22.6311C1.72217 22.2979 1.73367 21.9486 1.83694 21.6214C1.9402 21.2942 2.13126 21.0017 2.3893 20.7755C2.64735 20.5494 2.96249 20.3984 3.30041 20.3391L6.51603 19.7728L6.38291 19.6397C6.03453 19.2914 5.75817 18.878 5.56962 18.4229C5.38107 17.9678 5.28402 17.4801 5.28402 16.9875C5.28402 16.4949 5.38107 16.0071 5.56962 15.5521C5.75817 15.097 6.03453 14.6835 6.38291 14.3353L14.3367 6.38155C14.6849 6.03317 15.0984 5.75681 15.5534 5.56826C16.0085 5.37971 16.4963 5.28267 16.9888 5.28267C17.4814 5.28267 17.9692 5.37971 18.4243 5.56826C18.8793 5.75681 19.2928 6.03317 19.641 6.38155L19.7723 6.5128L20.3404 3.30468C20.4001 2.96669 20.5515 2.65158 20.7779 2.39368C21.0044 2.13578 21.2973 1.94499 21.6247 1.8421C21.9522 1.7392 22.3016 1.72816 22.6348 1.81017C22.9681 1.89218 23.2725 2.06409 23.5148 2.30718L27.6923 6.4978C27.9339 6.74065 28.1043 7.04504 28.1851 7.37792C28.2659 7.7108 28.2539 8.05946 28.1505 8.38603C28.0472 8.7126 27.8563 9.00461 27.5987 9.23036C27.341 9.45611 27.0265 9.60696 26.6892 9.66655L23.4885 10.2291ZM7.41041 16.0509H20.511V16.1166L22.2923 14.3353C22.6385 13.9901 22.8358 13.523 22.8417 13.0341H10.3354L7.70853 15.6628C7.59199 15.7785 7.49112 15.909 7.40853 16.0509H7.41041ZM7.41041 17.9259C7.49103 18.0647 7.59041 18.1941 7.70853 18.3141L11.6854 22.2909C12.037 22.6424 12.5139 22.8399 13.011 22.8399C13.5082 22.8399 13.985 22.6424 14.3367 22.2909L18.7035 17.9259H7.41041ZM21.7673 11.1591L18.3154 7.70718C17.9638 7.35567 17.487 7.1582 16.9898 7.1582C16.4926 7.1582 16.0158 7.35567 15.6642 7.70718L12.2104 11.1591H21.7673ZM3.62478 22.1859L7.81353 26.3747L8.52603 22.3434C8.54689 22.2246 8.53879 22.1026 8.50242 21.9875C8.46605 21.8725 8.40247 21.768 8.31709 21.6828C8.23171 21.5976 8.12704 21.5343 8.01196 21.4981C7.89688 21.462 7.77479 21.4542 7.65603 21.4753L3.62478 22.1859ZM22.1873 3.63093L21.4748 7.65843C21.454 7.77704 21.4621 7.89892 21.4984 8.01374C21.5347 8.12857 21.5981 8.23297 21.6832 8.31812C21.7684 8.40328 21.8728 8.46667 21.9876 8.50295C22.1024 8.53923 22.2243 8.54732 22.3429 8.52655L26.3648 7.82155L22.1854 3.63093H22.1873Z" fill="black"/>
</svg>
