<svg width="30" height="31" viewBox="0 0 30 31" fill="none" xmlns="http://www.w3.org/2000/svg">
<path d="M2.5 28.0847L20 10.2129" stroke="black" stroke-width="2" stroke-linecap="round" stroke-linejoin="round"/>
<path d="M4.33783 15.9961L6.25033 14.043L8.16283 15.9961C8.97958 16.8335 9.43815 17.9673 9.43815 19.1492C9.43815 20.3311 8.97958 21.4649 8.16283 22.3023L6.25033 24.2554L4.33783 22.3023C3.52108 21.4649 3.0625 20.3311 3.0625 19.1492C3.0625 17.9673 3.52108 16.8335 4.33783 15.9961Z" stroke="black" stroke-width="2" stroke-linecap="round" stroke-linejoin="round"/>
<path d="M9.33783 10.8887L11.2503 8.93555L13.1628 10.8887C13.9796 11.7261 14.4382 12.8598 14.4382 14.0418C14.4382 15.2237 13.9796 16.3575 13.1628 17.1949L11.2503 19.148L9.33783 17.1949C8.52108 16.3575 8.0625 15.2237 8.0625 14.0418C8.0625 12.8598 8.52108 11.7261 9.33783 10.8887Z" stroke="black" stroke-width="2" stroke-linecap="round" stroke-linejoin="round"/>
<path d="M14.3378 5.78321L16.2503 3.83008L18.1628 5.78321C18.9796 6.6206 19.4382 7.75437 19.4382 8.9363C19.4382 10.1182 18.9796 11.252 18.1628 12.0894L16.2503 14.0425L14.3378 12.0894C13.5211 11.252 13.0625 10.1182 13.0625 8.9363C13.0625 7.75437 13.5211 6.6206 14.3378 5.78321Z" stroke="black" stroke-width="2" stroke-linecap="round" stroke-linejoin="round"/>
<path d="M25 2.55273H27.5V5.10585C27.5 6.4601 26.9732 7.75889 26.0355 8.71649C25.0979 9.67409 23.8261 10.2121 22.5 10.2121H20V7.65896C20 6.3047 20.5268 5.00592 21.4645 4.04831C22.4021 3.09071 23.6739 2.55273 25 2.55273Z" stroke="black" stroke-width="2" stroke-linecap="round" stroke-linejoin="round"/>
<path d="M14.3375 22.3005L16.25 24.2536L14.3375 26.2067C13.5175 27.0408 12.4073 27.5092 11.25 27.5092C10.0927 27.5092 8.98247 27.0408 8.1625 26.2067L6.25 24.2536L8.1625 22.3005C8.98247 21.4664 10.0927 20.998 11.25 20.998C12.4073 20.998 13.5175 21.4664 14.3375 22.3005Z" stroke="black" stroke-width="2" stroke-linecap="round" stroke-linejoin="round"/>
<path d="M19.3375 17.195L21.25 19.1481L19.3375 21.1013C18.5175 21.9354 17.4073 22.4037 16.25 22.4037C15.0927 22.4037 13.9825 21.9354 13.1625 21.1013L11.25 19.1481L13.1625 17.195C13.9825 16.3609 15.0927 15.8926 16.25 15.8926C17.4073 15.8926 18.5175 16.3609 19.3375 17.195Z" stroke="black" stroke-width="2" stroke-linecap="round" stroke-linejoin="round"/>
<path d="M24.3375 12.0895L26.25 14.0427L24.3375 15.9958C23.5175 16.8299 22.4073 17.2982 21.25 17.2982C20.0927 17.2982 18.9825 16.8299 18.1625 15.9958L16.25 14.0427L18.1625 12.0895C18.9825 11.2554 20.0927 10.7871 21.25 10.7871C22.4073 10.7871 23.5175 11.2554 24.3375 12.0895Z" stroke="black" stroke-width="2" stroke-linecap="round" stroke-linejoin="round"/>
</svg>
