<svg width="29" height="30" viewBox="0 0 29 30" fill="none" xmlns="http://www.w3.org/2000/svg">
<g clip-path="url(#clip0_4165_827)">
<path d="M22.7592 26.4516L20.0623 10.3169C20.9707 9.9832 21.6173 9.1411 21.6173 8.15699C21.6173 7.13178 20.9156 6.26079 19.9473 5.95801V5.06806C19.9473 2.93474 18.1312 1.19922 15.8988 1.19922H12.9011C10.6689 1.19922 8.85269 2.93474 8.85269 5.06806V5.95801C7.88446 6.26079 7.18278 7.13178 7.18278 8.15699C7.18278 9.1411 7.82935 9.98311 8.73775 10.3169L6.04086 26.4516C5.72957 28.3138 7.23658 29.9992 9.20721 29.9992H19.5927C21.566 29.9991 23.0699 28.3112 22.7592 26.4516ZM10.4848 5.06806C10.4848 3.79465 11.5688 2.75885 12.9012 2.75885H15.8989C17.2314 2.75885 18.3154 3.79475 18.3154 5.06806V5.84354H10.4848V5.06806ZM9.60373 7.40308C10.6492 7.40308 18.172 7.40308 19.1964 7.40308C19.6315 7.40308 19.9853 7.74119 19.9853 8.1569C19.9853 8.57261 19.6315 8.91072 19.1964 8.91072C18.172 8.91072 10.6491 8.91072 9.60373 8.91072C9.16872 8.91072 8.81491 8.57261 8.81491 8.1569C8.81491 7.74129 9.16872 7.40308 9.60373 7.40308ZM19.5928 28.4395H9.20731C8.23867 28.4395 7.50002 27.6109 7.65265 26.6976L10.3648 10.4703H18.4353L21.1475 26.6975C21.3004 27.6119 20.5604 28.4395 19.5928 28.4395Z" fill="black" stroke="black" stroke-width="0.512"/>
<path d="M17.0505 12.6369C16.9894 12.27 16.6606 12 16.2746 12H12.5246C12.1384 12 11.8095 12.27 11.7487 12.6369L9.6096 25.5245C9.53345 25.9835 9.90238 26.4 10.3855 26.4H18.4136C18.8967 26.4 19.2658 25.9837 19.1896 25.5245L17.0505 12.6369ZM11.3066 24.8875L13.1946 13.5123H15.6042L17.4923 24.8875H11.3066Z" fill="black" stroke="black" stroke-width="0.512"/>
<path d="M12.6 4.79961C12.9314 4.79961 13.2 4.53098 13.2 4.19961C13.2 3.86824 12.9314 3.59961 12.6 3.59961C12.2686 3.59961 12 3.86824 12 4.19961C12 4.53098 12.2686 4.79961 12.6 4.79961Z" fill="black" stroke="black" stroke-width="0.512"/>
<path d="M16.1996 4.79961C16.531 4.79961 16.7996 4.53098 16.7996 4.19961C16.7996 3.86824 16.531 3.59961 16.1996 3.59961C15.8682 3.59961 15.5996 3.86824 15.5996 4.19961C15.5996 4.53098 15.8682 4.79961 16.1996 4.79961Z" fill="black" stroke="black" stroke-width="0.512"/>
</g>
<defs>
<clipPath id="clip0_4165_827">
<path d="M0 0H8.79999C19.8457 0 28.8 8.95431 28.8 20V30H0V0Z" fill="white"/>
</clipPath>
</defs>
</svg>
