<svg width="30" height="30" viewBox="0 0 30 30" fill="none" xmlns="http://www.w3.org/2000/svg">
<path d="M15.625 13.75C17.3509 13.75 18.75 12.3509 18.75 10.625C18.75 8.89911 17.3509 7.5 15.625 7.5C13.8991 7.5 12.5 8.89911 12.5 10.625C12.5 12.3509 13.8991 13.75 15.625 13.75Z" stroke="black" stroke-width="2" stroke-linecap="round" stroke-linejoin="round"/>
<path d="M15.6245 2.5C13.8835 2.49896 12.1882 3.05717 10.7884 4.09238C9.38861 5.12759 8.35836 6.58505 7.84946 8.25C6.47446 12.1625 6.87446 13.125 3.87446 15.85C3.27666 16.3401 2.84492 17.0029 2.63834 17.7478C2.43176 18.4927 2.46043 19.2833 2.72042 20.0113C2.98041 20.7392 3.45903 21.3691 4.09075 21.8146C4.72248 22.2601 5.47644 22.4995 6.24946 22.5C11.2495 22.5 16.7495 20.25 20.4995 17.125C21.8637 16.1018 22.8714 14.6753 23.3799 13.0476C23.8883 11.4199 23.8718 9.67344 23.3325 8.05565C22.7932 6.43787 21.7586 5.03076 20.3752 4.03366C18.9918 3.03656 17.3298 2.5 15.6245 2.5Z" stroke="black" stroke-width="2" stroke-linecap="round" stroke-linejoin="round"/>
<path d="M23.125 7.5L25.8625 13.125C26.1218 13.9329 26.2526 14.7765 26.25 15.625C26.251 16.8865 25.9577 18.1309 25.3935 19.2593C24.8294 20.3876 24.0098 21.3689 23 22.125C19.25 25.25 13.75 27.5 8.75 27.5C8.05406 27.499 7.37212 27.3045 6.78048 26.938C6.18884 26.5715 5.71085 26.0477 5.4 25.425L3 20.625" stroke="black" stroke-width="2" stroke-linecap="round" stroke-linejoin="round"/>
</svg>
