<svg width="10" height="14" viewBox="0 0 10 14" fill="none" xmlns="http://www.w3.org/2000/svg">
<path d="M2.96423 11.6015C2.84916 11.6015 2.73791 11.5521 2.67996 11.4652C1.61416 9.86751 2.64666 8.51462 2.69112 8.45783C2.78551 8.33724 2.9841 8.30071 3.13483 8.37625C3.28523 8.45158 3.33094 8.61008 3.23729 8.73053C3.1999 8.77912 2.36287 9.89594 3.24793 11.2227C3.33167 11.3481 3.27235 11.5042 3.11552 11.5711C3.06724 11.5917 3.01534 11.6015 2.96423 11.6015Z" fill="#555555" stroke="#555555" stroke-width="0.5"/>
<path d="M6.86709 3.66344C6.4718 3.66344 6.08791 3.74481 5.7358 3.90118C5.75987 3.68623 5.79893 3.4693 5.85499 3.2504C5.88868 3.11872 5.79018 2.98845 5.62875 2.95123L5.50956 2.92373L5.6218 1.2715C5.62661 1.20087 5.59489 1.13178 5.53411 1.08045C5.47334 1.02908 5.38878 1 5.30041 1H3.65454C3.56488 1 3.47934 1.02987 3.41844 1.08248C3.35749 1.13504 3.32672 1.20561 3.33358 1.27709L3.44513 2.44786L2.88313 2.31831C2.75823 2.28964 2.62402 2.32367 2.54273 2.40473C2.46148 2.48587 2.44921 2.59815 2.51153 2.68935L3.29083 3.82907C3.54033 5.78449 2.39234 7.07468 2.13417 7.33708C1.41328 8.01021 1 8.96651 1 9.96336C1 11.1419 1.31907 11.8863 2.03056 12.3542C2.08138 12.717 2.46715 13 2.93395 13H6.10101C6.56781 13 6.95358 12.717 7.00439 12.3542C7.71593 11.8861 8.03491 11.1418 8.03491 9.96336C8.03491 9.54872 7.96289 9.14139 7.82735 8.75836C8.30853 8.58191 8.73589 8.27209 9.04479 7.87049C9.39635 7.41337 9.5822 6.86887 9.5822 6.29586C9.5822 4.84436 8.3642 3.66344 6.86709 3.66344ZM4.96052 1.51505L4.87473 2.77742L4.10534 2.60004L4.0019 1.51505H4.96052ZM5.16972 3.3814C4.99126 4.23428 5.05413 4.98068 5.22397 5.60364H3.80948C3.95589 5.06642 4.0231 4.43724 3.92498 3.72692C3.92485 3.72579 3.91936 3.66879 3.88691 3.62755L3.44706 2.9843L5.16972 3.3814ZM6.50892 12.01C6.39355 12.0773 6.34076 12.1899 6.36411 12.2998C6.34741 12.4041 6.23578 12.485 6.10101 12.485H2.93395C2.79918 12.485 2.68755 12.4041 2.67085 12.2998C2.69398 12.1899 2.64102 12.0772 2.52573 12.0098C1.91579 11.654 1.64381 11.0228 1.64381 9.96336C1.64381 9.11117 1.98241 8.29881 2.57415 7.7202C2.6669 7.63491 3.25315 7.07097 3.6363 6.11866H5.39728C5.78069 7.07056 6.36776 7.63481 6.46098 7.72041C7.05255 8.29905 7.39106 9.11117 7.39106 9.96333C7.39106 11.0229 7.11908 11.6541 6.50892 12.01ZM7.17415 7.62389C7.08732 7.52222 6.99504 7.42481 6.89649 7.33306C6.7673 7.20203 6.43355 6.83388 6.15444 6.27252C6.00285 5.96751 5.89022 5.65501 5.81554 5.33616C6.06311 5.0842 6.39789 4.93803 6.74533 4.93803C7.47794 4.93803 8.07401 5.55732 8.07401 6.31853C8.07401 6.91097 7.69679 7.43501 7.17415 7.62389ZM7.61314 8.27051C7.57725 8.20284 7.53944 8.13622 7.49931 8.07092C8.2208 7.78548 8.71782 7.10383 8.71782 6.31853C8.71782 5.27333 7.83297 4.42299 6.74533 4.42299C6.37754 4.42299 6.01413 4.59337 5.70931 4.7715C5.70541 4.71838 5.71219 4.59295 5.7103 4.53956C5.71614 4.53609 5.72219 4.53307 5.72781 4.52926C6.06671 4.29976 6.46072 4.17845 6.86709 4.17845C8.0092 4.17845 8.93839 5.12829 8.93839 6.29583C8.93839 7.17264 8.4024 7.95737 7.61314 8.27051Z" fill="#555555" stroke="#555555" stroke-width="0.5"/>
</svg>
