<svg width="14" height="14" viewBox="0 0 14 14" fill="none" xmlns="http://www.w3.org/2000/svg">
<path d="M7.29134 6.41667C8.09676 6.41667 8.74967 5.76375 8.74967 4.95833C8.74967 4.15292 8.09676 3.5 7.29134 3.5C6.48593 3.5 5.83301 4.15292 5.83301 4.95833C5.83301 5.76375 6.48593 6.41667 7.29134 6.41667Z" stroke="#555555" stroke-linecap="round" stroke-linejoin="round"/>
<path d="M7.2918 1.16699C6.47934 1.16651 5.68821 1.427 5.03497 1.9101C4.38174 2.3932 3.90096 3.07335 3.66347 3.85033C3.0218 5.67616 3.20847 6.12533 1.80847 7.39699C1.5295 7.6257 1.32802 7.93503 1.23162 8.28265C1.13521 8.63027 1.14859 8.99919 1.26992 9.33892C1.39125 9.67864 1.6146 9.97257 1.90941 10.1805C2.20421 10.3884 2.55606 10.5001 2.9168 10.5003C5.25014 10.5003 7.8168 9.45033 9.5668 7.99199C10.2034 7.51451 10.6737 6.84882 10.911 6.08921C11.1483 5.32961 11.1405 4.5146 10.8889 3.75963C10.6372 3.00466 10.1544 2.34801 9.50883 1.8827C8.86324 1.41738 8.08761 1.16699 7.2918 1.16699Z" stroke="#555555" stroke-linecap="round" stroke-linejoin="round"/>
<path d="M10.7921 3.5L12.0696 6.125C12.1906 6.50202 12.2516 6.89571 12.2504 7.29167C12.2508 7.88038 12.114 8.46109 11.8507 8.98766C11.5874 9.51422 11.205 9.97213 10.7337 10.325C8.98372 11.7833 6.41706 12.8333 4.08372 12.8333C3.75895 12.8329 3.44071 12.7421 3.16461 12.5711C2.88852 12.4 2.66545 12.1556 2.52039 11.865L1.40039 9.625" stroke="#555555" stroke-linecap="round" stroke-linejoin="round"/>
</svg>
