<svg width="14" height="15" viewBox="0 0 14 15" fill="none" xmlns="http://www.w3.org/2000/svg">
<g clip-path="url(#clip0_2254_14908)">
<path d="M11.0638 13.2258L9.75285 5.15844C10.1944 4.9916 10.5087 4.57055 10.5087 4.0785C10.5087 3.56589 10.1676 3.1304 9.69692 2.97901V2.53403C9.69692 1.46737 8.8141 0.599609 7.72893 0.599609H6.27171C5.18659 0.599609 4.30372 1.46737 4.30372 2.53403V2.97901C3.83305 3.1304 3.49196 3.56589 3.49196 4.0785C3.49196 4.57055 3.80626 4.99155 4.24784 5.15844L2.93686 13.2258C2.78553 14.1569 3.51811 14.9996 4.47605 14.9996H9.52454C10.4838 14.9996 11.2149 14.1556 11.0638 13.2258ZM5.09712 2.53403C5.09712 1.89733 5.62406 1.37942 6.27176 1.37942H7.72898C8.37668 1.37942 8.90362 1.89737 8.90362 2.53403V2.92177H5.09712V2.53403ZM4.66881 3.70154C5.17704 3.70154 8.83394 3.70154 9.33193 3.70154C9.5434 3.70154 9.71539 3.87059 9.71539 4.07845C9.71539 4.2863 9.5434 4.45536 9.33193 4.45536C8.83394 4.45536 5.17699 4.45536 4.66881 4.45536C4.45734 4.45536 4.28535 4.2863 4.28535 4.07845C4.28535 3.87064 4.45734 3.70154 4.66881 3.70154ZM9.52459 14.2197H4.4761C4.00523 14.2197 3.64617 13.8054 3.72036 13.3488L5.03879 5.23517H8.96195L10.2804 13.3488C10.3547 13.806 9.99497 14.2197 9.52459 14.2197Z" fill="#555555" stroke="#555555" stroke-width="0.3"/>
<path d="M8.28893 6.31844C8.25927 6.13499 8.0994 6 7.91176 6H6.08884C5.90111 6 5.74124 6.13499 5.71167 6.31844L4.67185 12.7623C4.63483 12.9918 4.81417 13.2 5.04902 13.2H8.95159C9.18644 13.2 9.36582 12.9919 9.3288 12.7623L8.28893 6.31844ZM5.49678 12.4438L6.41456 6.75614H7.58591L8.50373 12.4438H5.49678Z" fill="#555555" stroke="#555555" stroke-width="0.3"/>
<path d="M6.12467 2.3998C6.28576 2.3998 6.41634 2.26549 6.41634 2.0998C6.41634 1.93412 6.28576 1.7998 6.12467 1.7998C5.96359 1.7998 5.83301 1.93412 5.83301 2.0998C5.83301 2.26549 5.96359 2.3998 6.12467 2.3998Z" fill="#555555" stroke="#555555" stroke-width="0.3"/>
<path d="M7.87467 2.3998C8.03576 2.3998 8.16634 2.26549 8.16634 2.0998C8.16634 1.93412 8.03576 1.7998 7.87467 1.7998C7.71359 1.7998 7.58301 1.93412 7.58301 2.0998C7.58301 2.26549 7.71359 2.3998 7.87467 2.3998Z" fill="#555555" stroke="#555555" stroke-width="0.3"/>
</g>
<defs>
<clipPath id="clip0_2254_14908">
<rect width="14" height="15" fill="white"/>
</clipPath>
</defs>
</svg>
