<svg width="38" height="39" viewBox="0 0 38 39" fill="none" xmlns="http://www.w3.org/2000/svg">
<path d="M17.416 17.2107H18.4993C18.7755 17.2107 18.9993 17.4345 18.9993 17.7107V24.5859C18.9993 24.8621 19.2232 25.0859 19.4993 25.0859H20.5827M18.9994 14.0605H19.0152" stroke="#004D40" stroke-linecap="round" stroke-linejoin="round"/>
<path d="M21.1989 31.9821C22.837 31.6948 24.4022 31.0893 25.8051 30.2002C27.2081 29.3111 28.4212 28.1559 29.3753 26.8004C30.3294 25.4449 31.0057 23.9158 31.3658 22.3003C31.7258 20.6848 31.7624 19.0146 31.4736 17.385C31.1847 15.7555 30.5761 14.1985 29.6823 12.8029C28.7886 11.4073 27.6272 10.2005 26.2646 9.25142C24.9021 8.30231 23.3649 7.62948 21.7409 7.27134C20.1169 6.91319 18.4379 6.87675 16.7998 7.16409C15.1617 7.45142 13.5965 8.05692 12.1936 8.94599C10.7906 9.83507 9.57752 10.9903 8.62342 12.3458C7.66933 13.7012 6.99296 15.2304 6.63293 16.8459C6.27291 18.4613 6.23627 20.1316 6.52512 21.7611C6.81397 23.3907 7.42264 24.9477 8.31639 26.3433C9.21014 27.7389 10.3715 28.9457 11.7341 29.8948C13.0966 30.8439 14.6338 31.5167 16.2578 31.8748C17.8818 32.233 19.5608 32.2694 21.1989 31.9821L21.1989 31.9821Z" stroke="#004D40"/>
</svg>
