<svg width="26" height="26" viewBox="0 0 26 26" fill="none" xmlns="http://www.w3.org/2000/svg">
<path d="M9.75 10.8327L13.2796 13.4799C13.733 13.8199 14.3717 13.753 14.7449 13.3266L21.6667 5.41602" stroke="#FFFEF1" stroke-width="3" stroke-linecap="round"/>
<path d="M22.75 13C22.75 15.0372 22.1119 17.0232 20.9252 18.6792C19.7387 20.3351 18.0631 21.5777 16.1341 22.2326C14.205 22.8874 12.1193 22.9215 10.1697 22.3302C8.22025 21.7388 6.50497 20.5516 5.26481 18.9355C4.02464 17.3193 3.32188 15.3552 3.25522 13.319C3.18857 11.2829 3.76137 9.27706 4.89317 7.5832C6.02498 5.88933 7.65894 4.59252 9.56556 3.87492C11.4722 3.15731 13.5558 3.05496 15.5235 3.58223" stroke="#FFFEF1" stroke-width="3" stroke-linecap="round"/>
</svg>
