<svg width="592" height="747" viewBox="0 0 592 747" fill="none" xmlns="http://www.w3.org/2000/svg">
<g filter="url(#filter0_d_5105_2538)">
<path d="M17 240C17 206.863 43.8629 180 77 180H515C548.137 180 575 206.863 575 240V666C575 699.137 548.137 726 515 726H77C43.8629 726 17 699.137 17 666V240Z" fill="#F3EADA"/>
<path d="M523 214.5C523 188.039 517.271 161.836 506.139 137.389C495.008 112.942 478.692 90.729 458.124 72.018C437.556 53.307 413.138 38.4646 386.264 28.3383C359.391 18.2119 330.588 13 301.5 13C272.412 13 243.609 18.212 216.736 28.3383C189.862 38.4646 165.444 53.307 144.876 72.018C124.308 90.729 107.992 112.942 96.8607 137.389C85.7293 161.836 80 188.039 80 214.5L523 214.5Z" fill="#F3EADA"/>
</g>
<g filter="url(#filter1_d_5105_2538)">
<path d="M466.238 179.5C473.838 179.5 480.089 173.313 479.123 165.774C474.993 133.55 456.416 103.245 426.254 80.1515C391.841 53.8026 345.167 39 296.5 39C247.833 39 201.159 53.8026 166.746 80.1515C136.584 103.245 118.007 133.55 113.877 165.774C112.911 173.313 119.162 179.5 126.762 179.5V179.5C134.363 179.5 140.422 173.304 141.556 165.789C145.574 139.163 161.211 114.194 186.209 95.0538C215.46 72.6572 255.133 60.075 296.5 60.075C337.867 60.075 377.54 72.6572 406.791 95.0538C431.789 114.194 447.426 139.163 451.444 165.789C452.578 173.304 458.637 179.5 466.238 179.5V179.5Z" fill="#E9E5CD"/>
</g>
<defs>
<filter id="filter0_d_5105_2538" x="0.799999" y="0.799999" width="590.4" height="745.4" filterUnits="userSpaceOnUse" color-interpolation-filters="sRGB">
<feFlood flood-opacity="0" result="BackgroundImageFix"/>
<feColorMatrix in="SourceAlpha" type="matrix" values="0 0 0 0 0 0 0 0 0 0 0 0 0 0 0 0 0 0 127 0" result="hardAlpha"/>
<feOffset dy="4"/>
<feGaussianBlur stdDeviation="8.1"/>
<feComposite in2="hardAlpha" operator="out"/>
<feColorMatrix type="matrix" values="0 0 0 0 0 0 0 0 0 0 0 0 0 0 0 0 0 0 0.25 0"/>
<feBlend mode="normal" in2="BackgroundImageFix" result="effect1_dropShadow_5105_2538"/>
<feBlend mode="normal" in="SourceGraphic" in2="effect1_dropShadow_5105_2538" result="shape"/>
</filter>
<filter id="filter1_d_5105_2538" x="98.5783" y="27.8" width="395.843" height="170.9" filterUnits="userSpaceOnUse" color-interpolation-filters="sRGB">
<feFlood flood-opacity="0" result="BackgroundImageFix"/>
<feColorMatrix in="SourceAlpha" type="matrix" values="0 0 0 0 0 0 0 0 0 0 0 0 0 0 0 0 0 0 127 0" result="hardAlpha"/>
<feMorphology radius="1" operator="erode" in="SourceAlpha" result="effect1_dropShadow_5105_2538"/>
<feOffset dy="4"/>
<feGaussianBlur stdDeviation="8.1"/>
<feComposite in2="hardAlpha" operator="out"/>
<feColorMatrix type="matrix" values="0 0 0 0 0 0 0 0 0 0 0 0 0 0 0 0 0 0 0.15 0"/>
<feBlend mode="normal" in2="BackgroundImageFix" result="effect1_dropShadow_5105_2538"/>
<feBlend mode="normal" in="SourceGraphic" in2="effect1_dropShadow_5105_2538" result="shape"/>
</filter>
</defs>
</svg>
