<svg width="34" height="33" viewBox="0 0 34 33" fill="none" xmlns="http://www.w3.org/2000/svg">
<path d="M17 1.58789V2.47678C17 5.47678 18.0385 8.36567 20 10.699C19.4231 13.5879 17.8077 16.1434 15.2692 17.8101L15.0385 17.9212C13.3077 18.8101 11.3462 19.1434 9.26923 18.9212L7.88462 18.8101C6.26923 18.4768 4.65385 18.9212 3.5 20.0323C2.57692 21.0323 2 22.3657 2 23.699V31.5879" stroke="white" stroke-width="2.5" stroke-miterlimit="10" stroke-linecap="round" stroke-linejoin="round"/>
<path d="M21.6152 1.58789V2.03234C21.6152 7.14345 23.9229 9.36567 23.9229 9.36567H24.9614C28.8845 9.36567 31.9999 12.3657 31.9999 16.1434C31.9999 18.2546 31.4229 20.3657 30.3845 22.2546C27.846 26.5879 22.7691 29.3657 16.6537 28.699C13.8845 28.4768 11.2306 27.4768 9.1537 25.8101C8.11523 24.9212 6.61523 25.5879 6.61523 26.8101V31.5879" stroke="white" stroke-width="2.5" stroke-miterlimit="10" stroke-linecap="round" stroke-linejoin="round"/>
</svg>
