<svg width="22" height="28" viewBox="0 0 22 28" fill="none" xmlns="http://www.w3.org/2000/svg">
<path fill-rule="evenodd" clip-rule="evenodd" d="M1.26617 6.55279C-1.31104 4.26194 0.309349 0 3.75754 0H18.1065C21.5547 0 23.1752 4.26194 20.5979 6.55279L15.1015 11.4384C14.8347 11.6756 14.682 12.0156 14.682 12.3726V25.1073C14.682 27.3345 11.9892 28.4499 10.4143 26.875L7.91427 24.375C7.44544 23.9061 7.18204 23.2703 7.18204 22.6073V12.3726C7.18204 12.0156 7.02936 11.6756 6.7625 11.4384L1.26617 6.55279ZM3.75754 2.5C2.60815 2.5 2.06801 3.92065 2.92709 4.68426L8.42341 9.56988C9.22405 10.2815 9.68205 11.3015 9.68205 12.3726V22.6073L12.182 25.1073V12.3726C12.182 11.3015 12.64 10.2815 13.4407 9.56988L18.937 4.68426C19.796 3.92065 19.2559 2.5 18.1065 2.5H3.75754Z" fill="#FF0000"/>
</svg>
