<svg width="30" height="30" viewBox="0 0 30 30" fill="none" xmlns="http://www.w3.org/2000/svg">
<g clip-path="url(#clip0_5144_2804)">
<path d="M15 0C6.71625 0 0 6.71625 0 15C0 23.2837 6.71625 30 15 30C23.2837 30 30 23.2837 30 15C30 6.71625 23.2837 0 15 0ZM15 24.575C13.8275 24.575 13.025 23.6712 13.025 22.5C13.025 21.295 13.8612 20.425 15 20.425C16.2037 20.425 16.975 21.295 16.975 22.5C16.975 23.6725 16.2037 24.575 15 24.575ZM15.7775 16.6513C15.4787 17.67 14.5375 17.6875 14.2237 16.6513C13.8625 15.4563 12.5787 10.92 12.5787 7.97375C12.5787 4.08625 17.4425 4.0675 17.4425 7.97375C17.4413 10.9375 16.0887 15.5913 15.7775 16.6513Z" fill="#015B59"/>
</g>
<defs>
<clipPath id="clip0_5144_2804">
<rect width="30" height="30" fill="white"/>
</clipPath>
</defs>
</svg>
