<svg width="15" height="15" viewBox="0 0 15 15" fill="none" xmlns="http://www.w3.org/2000/svg">
<path d="M1.51953 13.5005L10.0875 4.75049" stroke="#595959" stroke-width="1.2" stroke-linecap="round" stroke-linejoin="round"/>
<path d="M2.41932 7.58174L3.35568 6.62549L4.29204 7.58174C4.69192 7.99172 4.91643 8.54682 4.91643 9.12549C4.91643 9.70416 4.69192 10.2593 4.29204 10.6692L3.35568 11.6255L2.41932 10.6692C2.01944 10.2593 1.79492 9.70416 1.79492 9.12549C1.79492 8.54682 2.01944 7.99172 2.41932 7.58174Z" stroke="#595959" stroke-width="1.2" stroke-linecap="round" stroke-linejoin="round"/>
<path d="M4.86659 5.08174L5.80294 4.12549L6.7393 5.08174C7.13918 5.49172 7.3637 6.04682 7.3637 6.62549C7.3637 7.20416 7.13918 7.75925 6.7393 8.16924L5.80294 9.12549L4.86659 8.16924C4.46671 7.75925 4.24219 7.20416 4.24219 6.62549C4.24219 6.04682 4.46671 5.49172 4.86659 5.08174Z" stroke="#595959" stroke-width="1.2" stroke-linecap="round" stroke-linejoin="round"/>
<path d="M7.31385 2.58174L8.25021 1.62549L9.18657 2.58174C9.58645 2.99172 9.81097 3.54682 9.81097 4.12549C9.81097 4.70416 9.58645 5.25925 9.18657 5.66924L8.25021 6.62549L7.31385 5.66924C6.91397 5.25925 6.68945 4.70416 6.68945 4.12549C6.68945 3.54682 6.91397 2.99172 7.31385 2.58174Z" stroke="#595959" stroke-width="1.2" stroke-linecap="round" stroke-linejoin="round"/>
<path d="M12.5339 1.00049H13.7579V2.25049C13.7579 2.91353 13.5 3.54941 13.0409 4.01826C12.5818 4.4871 11.9592 4.75049 11.3099 4.75049H10.0859V3.50049C10.0859 2.83745 10.3439 2.20156 10.8029 1.73272C11.262 1.26388 11.8847 1.00049 12.5339 1.00049Z" stroke="#595959" stroke-width="1.2" stroke-linecap="round" stroke-linejoin="round"/>
<path d="M7.3151 10.6694L8.25146 11.6257L7.3151 12.5819C6.91364 12.9903 6.37009 13.2196 5.80346 13.2196C5.23683 13.2196 4.69328 12.9903 4.29183 12.5819L3.35547 11.6257L4.29183 10.6694C4.69328 10.261 5.23683 10.0317 5.80346 10.0317C6.37009 10.0317 6.91364 10.261 7.3151 10.6694Z" stroke="#595959" stroke-width="1.2" stroke-linecap="round" stroke-linejoin="round"/>
<path d="M9.76236 8.1694L10.6987 9.12565L9.76236 10.0819C9.36091 10.4903 8.81736 10.7196 8.25073 10.7196C7.6841 10.7196 7.14055 10.4903 6.73909 10.0819L5.80273 9.12565L6.73909 8.1694C7.14055 7.76103 7.6841 7.53174 8.25073 7.53174C8.81736 7.53174 9.36091 7.76103 9.76236 8.1694Z" stroke="#595959" stroke-width="1.2" stroke-linecap="round" stroke-linejoin="round"/>
<path d="M12.2096 5.6694L13.146 6.62565L12.2096 7.5819C11.8082 7.99028 11.2646 8.21957 10.698 8.21957C10.1314 8.21957 9.58781 7.99028 9.18636 7.5819L8.25 6.62565L9.18636 5.6694C9.58781 5.26103 10.1314 5.03174 10.698 5.03174C11.2646 5.03174 11.8082 5.26103 12.2096 5.6694Z" stroke="#595959" stroke-width="1.2" stroke-linecap="round" stroke-linejoin="round"/>
</svg>
