<svg width="16" height="17" viewBox="0 0 16 17" fill="none" xmlns="http://www.w3.org/2000/svg">
<path d="M14.954 8.1753C14.9473 8.03977 14.9407 7.90568 14.9347 7.77338C14.8559 6.04409 14.5406 3.89246 12.788 2.59235C11.9196 1.94822 10.8994 1.46713 9.91509 1.23774C8.72771 0.96094 7.63578 1.0604 6.75754 1.52526C5.95287 1.95118 5.42579 2.64244 4.96073 3.25235C4.41284 3.97089 3.93967 4.59143 3.12685 4.7603C2.37658 4.91616 1.69399 5.50687 1.20476 6.42363C0.769318 7.23961 0.519531 8.26413 0.519531 9.23445C0.519531 11.4725 1.90203 11.9891 3.12178 12.4448C3.52473 12.5953 3.94142 12.751 4.30368 12.9652C4.78398 13.2491 5.11383 13.6813 5.46311 14.1389C5.89058 14.6989 6.33259 15.2781 7.07955 15.6399C7.68816 15.9346 8.42164 16.0845 9.20452 16.0845C9.72451 16.0845 10.2664 16.0183 10.8078 15.8847C12.1748 15.5471 13.3306 14.8271 13.9788 13.9094C15.1542 12.2453 15.0478 10.083 14.954 8.1753ZM13.2302 13.3807C12.7073 14.121 11.7443 14.7094 10.5881 14.9949C9.45275 15.2753 8.29051 15.2081 7.47913 14.8151C6.92867 14.5485 6.57069 14.0794 6.19167 13.5828C5.80448 13.0756 5.40417 12.5511 4.77012 12.1762C4.33808 11.9208 3.8828 11.7507 3.44255 11.5862C2.27765 11.151 1.43603 10.8366 1.43603 9.23445C1.43603 7.53677 2.31324 5.86535 3.31324 5.6576C4.46101 5.41916 5.08553 4.60013 5.68949 3.80802C6.13691 3.22121 6.55958 2.66696 7.18627 2.33526C7.62945 2.10068 8.12694 1.99852 8.64521 1.99852C9.87911 1.99852 11.2301 2.57781 12.242 3.3284C13.6846 4.39859 13.9496 6.28834 14.0192 7.81513C14.0253 7.94854 14.0319 8.08372 14.0386 8.22036C14.1252 9.98012 14.2233 11.9747 13.2302 13.3807Z" fill="#595959" stroke="#595959" stroke-width="0.8"/>
<path d="M9.24074 6.33643C7.32565 6.33643 5.76758 7.89447 5.76758 9.80956C5.76758 11.7246 7.32565 13.2827 9.24074 13.2827C11.1558 13.2827 12.7139 11.7247 12.7139 9.80956C12.7139 7.8945 11.1559 6.33643 9.24074 6.33643ZM9.24074 12.3663C7.831 12.3663 6.68405 11.2194 6.68405 9.80959C6.68405 8.39984 7.831 7.25292 9.24074 7.25292C10.6505 7.25292 11.7974 8.39984 11.7974 9.80959C11.7974 11.2193 10.6505 12.3663 9.24074 12.3663Z" fill="#595959" stroke="#595959" stroke-width="0.8"/>
</svg>
