<!DOCTYPE svg PUBLIC "-//W3C//DTD SVG 1.1//EN" "http://www.w3.org/Graphics/SVG/1.1/DTD/svg11.dtd">
<!-- Uploaded to: SVG Repo, www.svgrepo.com, Transformed by: SVG Repo Mixer Tools -->
<svg fill="#000000" height="64px" width="64px" version="1.1" id="Layer_1" xmlns="http://www.w3.org/2000/svg" xmlns:xlink="http://www.w3.org/1999/xlink" viewBox="0 0 490.667 490.667" xml:space="preserve" stroke="#000000" stroke-width="9.81334">
<g id="SVGRepo_bgCarrier" stroke-width="0"/>
<g id="SVGRepo_tracerCarrier" stroke-linecap="round" stroke-linejoin="round"/>
<g id="SVGRepo_iconCarrier"> <g> <g> <g> <path d="M245.333,0C110.059,0,0,110.059,0,245.333s110.059,245.333,245.333,245.333s245.333-110.059,245.333-245.333 S380.608,0,245.333,0z M245.333,469.333c-123.52,0-224-100.48-224-224c0-57.92,22.272-110.613,58.496-150.4l71.339,71.339 c-27.157,14.187-41.813,37.909-43.989,70.613c-11.968,4.629-20.523,16.192-20.523,29.781c0,13.611,8.576,25.173,20.587,29.803 c1.344,19.307,6.955,34.197,17.643,44.821c19.499,19.328,50.987,21.461,87.957,21.461c5.12,0,10.347-0.043,15.659-0.085 l16.811-0.107l16.661,0.085c30.656,0.235,57.237,0.021,78.507-7.061l55.275,55.275 C355.947,447.061,303.253,469.333,245.333,469.333z M186.517,329.152c1.707,1.024,3.605,1.515,5.483,1.515 c2.752,0,5.483-1.067,7.552-3.115l28.885-28.885h55.125l39.829,39.829c-16.683,3.157-37.781,3.008-61.248,2.837l-16.811-0.085 l-17.003,0.085c-38.848,0.341-72.512,0.576-88.405-15.189c-6.293-6.229-10.048-15.296-11.371-27.477h7.147L186.517,329.152z M177.173,298.667h21.099l-7.915,7.915L177.173,298.667z M118.229,277.248c-5.675-0.235-10.24-4.843-10.24-10.581 c0-5.888,4.779-10.667,10.667-10.667h122.24l21.248,21.248H118.229z M128.512,234.667c2.603-25.579,15.083-42.496,38.613-52.437 l52.437,52.437H128.512z M410.816,395.755l-59.691-59.691c-0.021-0.021-0.043-0.085-0.064-0.107l-55.509-55.509l-0.085-0.085 l-42.581-42.581c-0.021-0.021-0.043-0.021-0.064-0.043l-75.499-75.499c-0.021-0.021-0.043-0.021-0.043-0.021L94.912,79.851 c39.808-36.224,92.48-58.517,150.421-58.517c123.52,0,224,100.48,224,224C469.333,303.275,447.04,355.947,410.816,395.755z"/> <path d="M383.509,236.885c-5.184-78.08-80.683-87.552-138.176-87.552c-8.533,0-16.853,0.235-24.96,0.725 c-5.867,0.341-10.368,5.397-10.005,11.285c0.341,5.888,5.568,10.411,11.285,10.005c7.659-0.469,15.573-0.683,23.659-0.683 c77.525,0,112.341,18.709,116.843,64h-56.491c-5.888,0-10.667,4.779-10.667,10.667S299.776,256,305.664,256h66.325 c5.888,0,10.667,4.779,10.667,10.667c0,5.739-4.565,10.347-10.24,10.581h-24.149c-5.888,0-10.667,4.779-10.667,10.667 c0,2.944,1.195,5.611,3.136,7.552c1.941,1.963,4.608,3.2,7.595,3.2h13.781c-0.384,3.285-0.917,6.379-1.621,9.237 c-1.451,5.717,2.027,11.499,7.744,12.928c0.875,0.213,1.728,0.32,2.603,0.32c4.757,0,9.131-3.221,10.347-8.064 c1.28-5.099,1.963-10.773,2.389-16.661c11.925-4.651,20.416-16.192,20.416-29.76 C403.989,253.099,395.456,241.536,383.509,236.885z"/> </g> </g> </g> </g>
</svg>