<svg width="35" height="35" viewBox="0 0 35 35" fill="none" xmlns="http://www.w3.org/2000/svg">
<path d="M30.2605 5.10449H5.46883C5.26758 5.10449 5.10425 5.26783 5.10425 5.46908V21.3868C5.10425 21.588 5.26758 21.7514 5.46883 21.7514H13.2439L11.3445 28.2541C11.2395 28.6128 11.281 28.9905 11.4611 29.3179C11.6405 29.6453 11.9373 29.883 12.296 29.9866C12.4251 30.0245 12.5556 30.042 12.6847 30.042C13.2899 30.042 13.8491 29.6453 14.0271 29.0365L16.1548 21.7499H18.8454L20.9738 29.0365C21.1517 29.6453 21.711 30.042 22.3162 30.042C22.4446 30.042 22.5751 30.0245 22.7049 29.9866C23.0636 29.8823 23.3604 29.6453 23.5398 29.3179C23.7199 28.9905 23.7614 28.6128 23.6564 28.2541L21.757 21.7514H30.2605C30.4617 21.7514 30.6251 21.588 30.6251 21.3868V5.46908C30.6251 5.26783 30.4617 5.10449 30.2605 5.10449ZM29.8959 5.83366V18.9674H13.5502V17.5003C13.5502 17.2991 13.3869 17.1357 13.1856 17.1357H8.75008C8.54883 17.1357 8.3855 17.2991 8.3855 17.5003V18.9674H5.83341V5.83366H29.8959ZM12.821 18.9674H9.11467V17.8649H12.821V18.9674ZM13.3263 28.833C13.2235 29.186 12.8516 29.3887 12.4987 29.2873C12.3274 29.2377 12.1859 29.124 12.0999 28.9672C12.0138 28.8104 11.9934 28.6303 12.0437 28.4582L14.0037 21.7506H15.395L13.3263 28.833ZM22.9557 28.459C23.006 28.6303 22.9863 28.8112 22.8996 28.9679C22.8135 29.1247 22.6721 29.2385 22.5007 29.288C22.1478 29.3879 21.7752 29.1867 21.6731 28.8338L19.6045 21.7521H20.9957L22.9557 28.459ZM21.2699 21.0222H19.1188H15.8813H13.7303H5.83341V19.6966H8.75008H13.1856H29.8959V21.0222H21.2699Z" fill="#000000" stroke="#000000" stroke-width="1.024"/>
</svg>
