<svg width="12" height="20" viewBox="0 0 12 20" fill="none" xmlns="http://www.w3.org/2000/svg">
<path d="M3.94145 16.8969C3.80336 16.8969 3.66986 16.8228 3.60033 16.6924C2.32137 14.2959 3.56036 12.2666 3.61372 12.1814C3.72698 12.0005 3.96529 11.9457 4.14618 12.059C4.32665 12.172 4.3815 12.4097 4.26912 12.5904C4.22426 12.6633 3.21982 14.3385 4.28189 16.3286C4.38238 16.5168 4.3112 16.7509 4.123 16.8513C4.06506 16.8822 4.00279 16.8969 3.94145 16.8969Z" fill="#595959" stroke="#595959" stroke-width="0.4"/>
<path d="M8.06395 4.99515C7.58959 4.99515 7.12894 5.11722 6.70639 5.35177C6.73529 5.02935 6.78216 4.70395 6.84942 4.37561C6.88985 4.17809 6.77165 3.98268 6.57794 3.92685L6.43491 3.88559L6.5696 1.40725C6.57537 1.3013 6.5373 1.19767 6.46437 1.12068C6.39144 1.04362 6.28998 1 6.18393 1H4.20889C4.10129 1 3.99865 1.04481 3.92556 1.12371C3.85242 1.20257 3.8155 1.30841 3.82374 1.41564L3.9576 3.17179L3.2832 2.97746C3.13332 2.93446 2.97226 2.9855 2.87472 3.1071C2.77722 3.22881 2.76249 3.39723 2.83727 3.53402L3.77244 5.24361C4.07183 8.17674 2.69424 10.112 2.38444 10.5056C1.51937 11.5153 1.02344 12.9498 1.02344 14.445C1.02344 16.2129 1.40632 17.3294 2.26011 18.0313C2.32109 18.5755 2.78402 19 3.34418 19H7.14464C7.70481 19 8.16773 18.5756 8.22871 18.0313C9.08255 17.3291 9.46533 16.2126 9.46533 14.445C9.46533 13.8231 9.37891 13.2121 9.21626 12.6375C9.79368 12.3729 10.3065 11.9081 10.6772 11.3057C11.0991 10.6201 11.3221 9.8033 11.3221 8.9438C11.3221 6.76655 9.86048 4.99515 8.06395 4.99515ZM5.77607 1.77257L5.67311 3.66613L4.74984 3.40006L4.62571 1.77257H5.77607ZM6.0271 4.5721C5.81294 5.85142 5.8884 6.97102 6.0922 7.90547H4.39482C4.5705 7.09963 4.65116 6.15586 4.53342 5.09038C4.53326 5.08869 4.52667 5.00319 4.48773 4.94133L3.95992 3.97645L6.0271 4.5721ZM7.63414 17.515C7.4957 17.616 7.43235 17.7849 7.46037 17.9497C7.44033 18.1061 7.30637 18.2274 7.14464 18.2274H3.34418C3.18245 18.2274 3.04849 18.1062 3.02846 17.9497C3.05622 17.7848 2.99266 17.6158 2.85432 17.5147C2.12239 16.981 1.79601 16.0343 1.79601 14.445C1.79601 13.1668 2.20232 11.9482 2.91242 11.0803C3.02372 10.9524 3.72722 10.1065 4.187 8.67798H6.30018C6.76027 10.1058 7.46474 10.9522 7.57661 11.0806C8.2865 11.9486 8.69272 13.1668 8.69272 14.445C8.69272 16.0344 8.36633 16.9812 7.63414 17.515ZM8.43241 10.9358C8.32822 10.7833 8.21748 10.6372 8.09923 10.4996C7.9442 10.3031 7.5437 9.75082 7.20877 8.90877C7.02685 8.45126 6.89171 7.98252 6.80209 7.50425C7.09917 7.12631 7.5009 6.90705 7.91783 6.90705C8.79696 6.90705 9.51225 7.83599 9.51225 8.97779C9.51225 9.86645 9.05958 10.6525 8.43241 10.9358ZM8.9592 11.9058C8.91614 11.8043 8.87077 11.7043 8.82261 11.6064C9.6884 11.1782 10.2848 10.1557 10.2848 8.97779C10.2848 7.40999 9.223 6.13448 7.91783 6.13448C7.47649 6.13448 7.0404 6.39005 6.67461 6.65725C6.66993 6.57758 6.67807 6.38943 6.6758 6.30934C6.6828 6.30414 6.69007 6.29961 6.69681 6.29389C7.10349 5.94963 7.5763 5.76767 8.06395 5.76767C9.43448 5.76767 10.5495 7.19244 10.5495 8.94375C10.5495 10.259 9.90632 11.436 8.9592 11.9058Z" fill="#595959" stroke="#595959" stroke-width="0.4"/>
</svg>
