<svg width="30" height="30" viewBox="0 0 30 30" fill="none" xmlns="http://www.w3.org/2000/svg">
<path fill-rule="evenodd" clip-rule="evenodd" d="M5.33453 7.80279C2.75732 5.51194 4.37771 1.25 7.8259 1.25H22.1749C25.623 1.25 27.2435 5.51194 24.6663 7.80279L19.1699 12.6884C18.903 12.9256 18.7504 13.2656 18.7504 13.6226V26.3573C18.7504 28.5845 16.0575 29.6999 14.4827 28.125L11.9826 25.625C11.5138 25.1561 11.2504 24.5203 11.2504 23.8573V13.6226C11.2504 13.2656 11.0977 12.9256 10.8309 12.6884L5.33453 7.80279ZM7.8259 3.75C6.67651 3.75 6.13637 5.17065 6.99545 5.93426L12.4918 10.8199C13.2924 11.5315 13.7504 12.5515 13.7504 13.6226V23.8573L16.2504 26.3573V13.6226C16.2504 12.5515 16.7084 11.5315 17.509 10.8199L23.0054 5.93426C23.8644 5.17065 23.3243 3.75 22.1749 3.75H7.8259Z" fill="#718096"/>
</svg>
