<svg width="24" height="25" viewBox="0 0 24 25" fill="none" xmlns="http://www.w3.org/2000/svg">
<path d="M12 13.6953C12.5523 13.6953 13 13.2476 13 12.6953C13 12.143 12.5523 11.6953 12 11.6953C11.4477 11.6953 11 12.143 11 12.6953C11 13.2476 11.4477 13.6953 12 13.6953Z" stroke="black" stroke-width="2" stroke-linecap="round" stroke-linejoin="round"/>
<path d="M12 6.69531C12.5523 6.69531 13 6.2476 13 5.69531C13 5.14303 12.5523 4.69531 12 4.69531C11.4477 4.69531 11 5.14303 11 5.69531C11 6.2476 11.4477 6.69531 12 6.69531Z" stroke="black" stroke-width="2" stroke-linecap="round" stroke-linejoin="round"/>
<path d="M12 20.6953C12.5523 20.6953 13 20.2476 13 19.6953C13 19.143 12.5523 18.6953 12 18.6953C11.4477 18.6953 11 19.143 11 19.6953C11 20.2476 11.4477 20.6953 12 20.6953Z" stroke="black" stroke-width="2" stroke-linecap="round" stroke-linejoin="round"/>
</svg>
