<svg width="14" height="15" viewBox="0 0 14 15" fill="none" xmlns="http://www.w3.org/2000/svg">
<path d="M7.38672 6.87549C8.24966 6.87549 8.94922 6.17593 8.94922 5.31299C8.94922 4.45004 8.24966 3.75049 7.38672 3.75049C6.52377 3.75049 5.82422 4.45004 5.82422 5.31299C5.82422 6.17593 6.52377 6.87549 7.38672 6.87549Z" stroke="#595959" stroke-width="1.5" stroke-linecap="round" stroke-linejoin="round"/>
<path d="M7.38742 1.25049C6.51693 1.24997 5.66928 1.52907 4.96939 2.04668C4.2695 2.56428 3.75438 3.29301 3.49992 4.12549C2.81242 6.08174 3.01242 6.56299 1.51242 7.92549C1.21352 8.17053 0.997657 8.50196 0.894367 8.87441C0.791076 9.24686 0.80541 9.64213 0.935406 10.0061C1.0654 10.3701 1.30471 10.685 1.62057 10.9078C1.93643 11.1305 2.31342 11.2502 2.69992 11.2505C5.19992 11.2505 7.94992 10.1255 9.82492 8.56299C10.507 8.0514 11.0109 7.33816 11.2651 6.52429C11.5194 5.71043 11.5111 4.83721 11.2414 4.02831C10.9718 3.21942 10.4545 2.51587 9.76281 2.01732C9.07111 1.51877 8.24007 1.25049 7.38742 1.25049Z" stroke="#595959" stroke-width="1.5" stroke-linecap="round" stroke-linejoin="round"/>
<path d="M11.1367 3.75049L12.5055 6.56299C12.6351 6.96694 12.7005 7.38875 12.6992 7.81299C12.6997 8.44376 12.5531 9.06595 12.271 9.63012C11.9889 10.1943 11.5791 10.6849 11.0742 11.063C9.19922 12.6255 6.44922 13.7505 3.94922 13.7505C3.60125 13.75 3.26028 13.6527 2.96446 13.4695C2.66864 13.2863 2.42964 13.0243 2.27422 12.713L1.07422 10.313" stroke="#595959" stroke-width="1.5" stroke-linecap="round" stroke-linejoin="round"/>
</svg>
