<svg width="30" height="30" viewBox="0 0 30 30" fill="none" xmlns="http://www.w3.org/2000/svg">
<path d="M2.5 15H27.5" stroke="#000000" stroke-width="2" stroke-linecap="round" stroke-linejoin="round"/>
<path d="M25 15V25C25 25.663 24.7366 26.2989 24.2678 26.7678C23.7989 27.2366 23.163 27.5 22.5 27.5H7.5C6.83696 27.5 6.20107 27.2366 5.73223 26.7678C5.26339 26.2989 5 25.663 5 25V15" stroke="#000000" stroke-width="2" stroke-linecap="round" stroke-linejoin="round"/>
<path d="M5 10L25 5" stroke="#000000" stroke-width="2" stroke-linecap="round" stroke-linejoin="round"/>
<path d="M11.0749 8.47469L10.5124 6.21219C10.4318 5.89373 10.4148 5.56251 10.4623 5.23746C10.5098 4.91241 10.6209 4.59991 10.7892 4.31781C10.9575 4.03572 11.1798 3.78956 11.4433 3.59342C11.7068 3.39727 12.0064 3.25498 12.3249 3.17469L14.7499 2.57469C15.0692 2.49429 15.4013 2.47777 15.727 2.52605C16.0527 2.57434 16.3656 2.68649 16.6479 2.85607C16.9301 3.02565 17.1761 3.24931 17.3716 3.5142C17.5672 3.7791 17.7085 4.08002 17.7874 4.39969L18.3499 6.64969" stroke="#000000" stroke-width="2" stroke-linecap="round" stroke-linejoin="round"/>
</svg>
