<svg width="42" height="40" viewBox="0 0 42 40" fill="none" xmlns="http://www.w3.org/2000/svg">
<path d="M20.8155 0C9.32016 0 0 8.95375 0 20C0 31.0462 9.31886 40 20.8155 40C32.3122 40 41.6311 31.0462 41.6311 20C41.6311 8.95375 32.3122 0 20.8155 0ZM20.8155 37.54C10.772 37.54 2.60194 29.65 2.60194 20C2.60194 10.35 10.772 2.5 20.8155 2.5C30.859 2.5 39.0291 10.35 39.0291 20C39.0291 29.65 30.859 37.54 20.8155 37.54ZM29.9223 18.75H22.1165V11.25C22.1165 10.56 21.5337 10 20.8155 10C20.0974 10 19.5146 10.56 19.5146 11.25V18.75H11.7087C10.9906 18.75 10.4078 19.31 10.4078 20C10.4078 20.69 10.9906 21.25 11.7087 21.25H19.5146V28.75C19.5146 29.44 20.0974 30 20.8155 30C21.5337 30 22.1165 29.44 22.1165 28.75V21.25H29.9223C30.6405 21.25 31.2233 20.69 31.2233 20C31.2233 19.31 30.6405 18.75 29.9223 18.75Z" fill="black"/>
</svg>
