<svg width="11" height="19" viewBox="0 0 11 19" fill="none" xmlns="http://www.w3.org/2000/svg">
<path d="M10.4813 15.8722L8.86318 6.1913C9.40822 5.99109 9.79616 5.48583 9.79616 4.89537C9.79616 4.28024 9.37515 3.75765 8.79415 3.57598V3.04201C8.79415 1.76202 7.7045 0.720703 6.36508 0.720703H4.56646C3.22711 0.720703 2.1374 1.76202 2.1374 3.04201V3.57598C1.55645 3.75765 1.13545 4.28024 1.13545 4.89537C1.13545 5.48583 1.52339 5.99104 2.06843 6.1913L0.450299 15.8722C0.263522 16.9894 1.16773 18.0007 2.35011 18.0007H8.58138C9.76539 18.0006 10.6677 16.9879 10.4813 15.8722ZM3.11668 3.04201C3.11668 2.27796 3.76707 1.65648 4.56652 1.65648H6.36514C7.1646 1.65648 7.81499 2.27802 7.81499 3.04201V3.5073H3.11668V3.04201ZM2.58802 4.44302C3.21532 4.44302 7.72898 4.44302 8.34365 4.44302C8.60465 4.44302 8.81694 4.64589 8.81694 4.89531C8.81694 5.14474 8.60465 5.3476 8.34365 5.3476C7.72898 5.3476 3.21526 5.3476 2.58802 5.3476C2.32701 5.3476 2.11473 5.14474 2.11473 4.89531C2.11473 4.64594 2.32701 4.44302 2.58802 4.44302ZM8.58144 17.0649H2.35017C1.76898 17.0649 1.32579 16.5677 1.41737 16.0197L3.04469 6.28338H7.88698L9.5143 16.0197C9.606 16.5683 9.16202 17.0649 8.58144 17.0649Z" fill="#595959" stroke="#595959" stroke-width="0.3"/>
<path d="M7.05645 7.58135C7.01983 7.36121 6.82252 7.19922 6.59091 7.19922H4.3409C4.10919 7.19922 3.91187 7.36121 3.87537 7.58135L2.59193 15.3139C2.54624 15.5893 2.7676 15.8392 3.05746 15.8392H7.87436C8.16422 15.8392 8.38564 15.5895 8.33994 15.3139L7.05645 7.58135ZM3.61013 14.9317L4.74293 8.10659H6.18871L7.32157 14.9317H3.61013Z" fill="#595959" stroke="#595959" stroke-width="0.3"/>
<path d="M4.38539 2.88016C4.58421 2.88016 4.74539 2.71898 4.74539 2.52016C4.74539 2.32133 4.58421 2.16016 4.38539 2.16016C4.18657 2.16016 4.02539 2.32133 4.02539 2.52016C4.02539 2.71898 4.18657 2.88016 4.38539 2.88016Z" fill="#595959" stroke="#595959" stroke-width="0.3"/>
<path d="M6.54555 2.88016C6.74437 2.88016 6.90555 2.71898 6.90555 2.52016C6.90555 2.32133 6.74437 2.16016 6.54555 2.16016C6.34672 2.16016 6.18555 2.32133 6.18555 2.52016C6.18555 2.71898 6.34672 2.88016 6.54555 2.88016Z" fill="#595959" stroke="#595959" stroke-width="0.3"/>
</svg>
