<svg width="32" height="33" viewBox="0 0 32 33" fill="none" xmlns="http://www.w3.org/2000/svg">
<path d="M16 1.58789V2.47678C16 5.47678 17.0385 8.36567 19 10.699C18.4231 13.5879 16.8077 16.1434 14.2692 17.8101L14.0385 17.9212C12.3077 18.8101 10.3462 19.1434 8.26923 18.9212L6.88462 18.8101C5.26923 18.4768 3.65385 18.9212 2.5 20.0323C1.57692 21.0323 1 22.3657 1 23.699V31.5879" stroke="#993300" stroke-width="2" stroke-miterlimit="10" stroke-linecap="round" stroke-linejoin="round"/>
<path d="M20.6152 1.58789V2.03234C20.6152 7.14345 22.9229 9.36567 22.9229 9.36567H23.9614C27.8845 9.36567 30.9999 12.3657 30.9999 16.1434C30.9999 18.2546 30.4229 20.3657 29.3845 22.2546C26.846 26.5879 21.7691 29.3657 15.6537 28.699C12.8845 28.4768 10.2306 27.4768 8.1537 25.8101C7.11523 24.9212 5.61523 25.5879 5.61523 26.8101V31.5879" stroke="#993300" stroke-width="2" stroke-miterlimit="10" stroke-linecap="round" stroke-linejoin="round"/>
</svg>
