<svg width="17" height="24" viewBox="0 0 17 24" fill="none" xmlns="http://www.w3.org/2000/svg">
<path d="M16.2525 4.06603H14.3313V2.97638C14.3313 2.75465 14.1515 2.57493 13.9298 2.57493H11.0252C10.7774 1.40164 9.73339 0.529297 8.50037 0.529297C7.26733 0.529297 6.22335 1.40164 5.97555 2.57492H3.07094C2.84921 2.57492 2.66948 2.75464 2.66948 2.97637V4.06602H0.748145C0.526412 4.06602 0.34668 4.24575 0.34668 4.46748V23.0689C0.34668 23.2906 0.526412 23.4704 0.748145 23.4704H16.2525C16.4743 23.4704 16.654 23.2906 16.654 23.0689V4.4675C16.654 4.24576 16.4743 4.06603 16.2525 4.06603ZM3.47242 3.37785H6.32544C6.53777 3.37785 6.7133 3.21257 6.72618 3.00069C6.78286 2.06511 7.56215 1.33224 8.50037 1.33224C9.43858 1.33224 10.2179 2.06511 10.2746 3.00069C10.2874 3.21257 10.463 3.37785 10.6753 3.37785H13.5283V4.06603V4.86896V5.82487H3.47242V4.86896V4.06603V3.37785ZM15.8511 22.6674H1.14964V4.86896H2.66948V6.22633C2.66948 6.44808 2.84921 6.6278 3.07094 6.6278H13.9298C14.1515 6.6278 14.3313 6.44807 14.3313 6.22633V4.86896H15.8511V22.6674Z" stroke="white" stroke-width="0.7"/>
<path d="M5.48002 9.24009L3.82828 10.8919L3.08968 10.1533C2.93287 9.99654 2.6787 9.99654 2.52187 10.1533C2.3651 10.3101 2.3651 10.5642 2.52187 10.7211L3.54436 11.7436C3.62277 11.8219 3.7255 11.8611 3.82828 11.8611C3.93105 11.8611 4.03378 11.8219 4.11218 11.7436L6.04784 9.80792C6.20461 9.6511 6.20461 9.39692 6.04784 9.2401C5.89103 9.08338 5.63685 9.08338 5.48002 9.24009Z" stroke="white" stroke-width="0.7"/>
<path d="M7.54209 10.0903C7.32034 10.0903 7.14062 10.2701 7.14062 10.4918C7.14062 10.7135 7.32036 10.8933 7.54209 10.8933H14.195C14.4168 10.8933 14.5965 10.7135 14.5965 10.4918C14.5965 10.2701 14.4168 10.0903 14.195 10.0903H7.54209Z" stroke="white" stroke-width="0.7"/>
<path d="M5.48002 13.7879L3.82828 15.4398L3.08968 14.7011C2.93287 14.5444 2.6787 14.5444 2.52187 14.7011C2.3651 14.8579 2.3651 15.1121 2.52187 15.2689L3.54436 16.2914C3.62277 16.3698 3.7255 16.409 3.82828 16.409C3.93105 16.409 4.03378 16.3698 4.11218 16.2914L6.04784 14.3558C6.20461 14.199 6.20461 13.9448 6.04784 13.7879C5.89103 13.6312 5.63685 13.6312 5.48002 13.7879Z" stroke="white" stroke-width="0.7"/>
<path d="M14.195 14.6382H7.54209C7.32034 14.6382 7.14062 14.8179 7.14062 15.0397C7.14062 15.2614 7.32036 15.4411 7.54209 15.4411H14.195C14.4168 15.4411 14.5965 15.2614 14.5965 15.0397C14.5965 14.8179 14.4168 14.6382 14.195 14.6382Z" stroke="white" stroke-width="0.7"/>
<path d="M5.48002 18.3353L3.82828 19.9871L3.08968 19.2485C2.93287 19.0917 2.6787 19.0917 2.52187 19.2485C2.3651 19.4053 2.3651 19.6595 2.52187 19.8163L3.54436 20.8388C3.62277 20.9171 3.7255 20.9563 3.82828 20.9563C3.93105 20.9563 4.03378 20.9171 4.11218 20.8388L6.04784 18.9031C6.20461 18.7463 6.20461 18.4921 6.04784 18.3353C5.89103 18.1786 5.63685 18.1786 5.48002 18.3353Z" stroke="white" stroke-width="0.7"/>
<path d="M14.195 19.1855H7.54209C7.32034 19.1855 7.14062 19.3653 7.14062 19.587C7.14062 19.8088 7.32036 19.9885 7.54209 19.9885H14.195C14.4168 19.9885 14.5965 19.8088 14.5965 19.587C14.5965 19.3653 14.4168 19.1855 14.195 19.1855Z" stroke="white" stroke-width="0.7"/>
</svg>
