<svg width="31" height="31" viewBox="0 0 31 31" fill="none" xmlns="http://www.w3.org/2000/svg">
<g clip-path="url(#clip0_5144_2799)">
<path d="M15.5723 0.574219C7.28852 0.574219 0.572266 7.29047 0.572266 15.5742C0.572266 23.858 7.28852 30.5742 15.5723 30.5742C23.856 30.5742 30.5723 23.858 30.5723 15.5742C30.5723 7.29047 23.856 0.574219 15.5723 0.574219ZM15.5723 25.1492C14.3998 25.1492 13.5973 24.2455 13.5973 23.0742C13.5973 21.8692 14.4335 20.9992 15.5723 20.9992C16.776 20.9992 17.5473 21.8692 17.5473 23.0742C17.5473 24.2467 16.776 25.1492 15.5723 25.1492ZM16.3498 17.2255C16.051 18.2442 15.1098 18.2617 14.796 17.2255C14.4348 16.0305 13.151 11.4942 13.151 8.54797C13.151 4.66047 18.0148 4.64172 18.0148 8.54797C18.0135 11.5117 16.661 16.1655 16.3498 17.2255Z" fill="#FFA17A"/>
</g>
<defs>
<clipPath id="clip0_5144_2799">
<rect width="30" height="30" fill="white" transform="translate(0.572266 0.574219)"/>
</clipPath>
</defs>
</svg>
